<mxfile host="Electron" agent="Mozilla/5.0 (X11; Linux x86_64) AppleWebKit/537.36 (KHTML, like Gecko) draw.io/24.7.5 Chrome/126.0.6478.183 Electron/31.3.0 Safari/537.36" version="24.7.5">
  <diagram name="Страница — 1" id="aoiNyQgj-cPFS0O0dfM_">
    <mxGraphModel dx="989" dy="585" grid="1" gridSize="10" guides="1" tooltips="1" connect="1" arrows="1" fold="1" page="1" pageScale="1" pageWidth="827" pageHeight="1169" math="0" shadow="0">
      <root>
        <mxCell id="0" />
        <mxCell id="1" parent="0" />
        <mxCell id="JW0y1luNZP_NVmCAK8k2-1" value="ООО «Книжный клуб»" style="swimlane;whiteSpace=wrap;html=1;" vertex="1" parent="1">
          <mxGeometry x="120" y="240" width="600" height="530" as="geometry" />
        </mxCell>
        <mxCell id="JW0y1luNZP_NVmCAK8k2-6" value="Просмотр товара" style="ellipse;whiteSpace=wrap;html=1;" vertex="1" parent="JW0y1luNZP_NVmCAK8k2-1">
          <mxGeometry x="60" y="90" width="120" height="60" as="geometry" />
        </mxCell>
        <mxCell id="JW0y1luNZP_NVmCAK8k2-22" style="edgeStyle=orthogonalEdgeStyle;rounded=0;orthogonalLoop=1;jettySize=auto;html=1;exitX=0.5;exitY=1;exitDx=0;exitDy=0;entryX=0.5;entryY=0;entryDx=0;entryDy=0;dashed=1;" edge="1" parent="JW0y1luNZP_NVmCAK8k2-1" source="JW0y1luNZP_NVmCAK8k2-7" target="JW0y1luNZP_NVmCAK8k2-19">
          <mxGeometry relative="1" as="geometry" />
        </mxCell>
        <mxCell id="JW0y1luNZP_NVmCAK8k2-28" value="include" style="edgeLabel;html=1;align=center;verticalAlign=middle;resizable=0;points=[];" vertex="1" connectable="0" parent="JW0y1luNZP_NVmCAK8k2-22">
          <mxGeometry x="-0.3048" y="2" relative="1" as="geometry">
            <mxPoint as="offset" />
          </mxGeometry>
        </mxCell>
        <mxCell id="JW0y1luNZP_NVmCAK8k2-7" value="Просмотр товаров" style="ellipse;whiteSpace=wrap;html=1;" vertex="1" parent="JW0y1luNZP_NVmCAK8k2-1">
          <mxGeometry x="440" y="90" width="120" height="50" as="geometry" />
        </mxCell>
        <mxCell id="JW0y1luNZP_NVmCAK8k2-34" style="edgeStyle=orthogonalEdgeStyle;rounded=0;orthogonalLoop=1;jettySize=auto;html=1;exitX=1;exitY=0.5;exitDx=0;exitDy=0;entryX=0.5;entryY=1;entryDx=0;entryDy=0;dashed=1;" edge="1" parent="JW0y1luNZP_NVmCAK8k2-1" source="JW0y1luNZP_NVmCAK8k2-8" target="JW0y1luNZP_NVmCAK8k2-14">
          <mxGeometry relative="1" as="geometry" />
        </mxCell>
        <mxCell id="JW0y1luNZP_NVmCAK8k2-35" value="extend" style="edgeLabel;html=1;align=center;verticalAlign=middle;resizable=0;points=[];" vertex="1" connectable="0" parent="JW0y1luNZP_NVmCAK8k2-34">
          <mxGeometry x="0.184" relative="1" as="geometry">
            <mxPoint as="offset" />
          </mxGeometry>
        </mxCell>
        <mxCell id="JW0y1luNZP_NVmCAK8k2-39" style="edgeStyle=orthogonalEdgeStyle;rounded=0;orthogonalLoop=1;jettySize=auto;html=1;exitX=0;exitY=0.5;exitDx=0;exitDy=0;entryX=0.5;entryY=0;entryDx=0;entryDy=0;dashed=1;" edge="1" parent="JW0y1luNZP_NVmCAK8k2-1" source="JW0y1luNZP_NVmCAK8k2-8" target="JW0y1luNZP_NVmCAK8k2-38">
          <mxGeometry relative="1" as="geometry" />
        </mxCell>
        <mxCell id="JW0y1luNZP_NVmCAK8k2-40" value="extend" style="edgeLabel;html=1;align=center;verticalAlign=middle;resizable=0;points=[];" vertex="1" connectable="0" parent="JW0y1luNZP_NVmCAK8k2-39">
          <mxGeometry x="-0.4024" y="1" relative="1" as="geometry">
            <mxPoint as="offset" />
          </mxGeometry>
        </mxCell>
        <mxCell id="JW0y1luNZP_NVmCAK8k2-42" style="edgeStyle=orthogonalEdgeStyle;rounded=0;orthogonalLoop=1;jettySize=auto;html=1;exitX=1;exitY=1;exitDx=0;exitDy=0;entryX=0;entryY=0.5;entryDx=0;entryDy=0;dashed=1;" edge="1" parent="JW0y1luNZP_NVmCAK8k2-1" source="JW0y1luNZP_NVmCAK8k2-8" target="JW0y1luNZP_NVmCAK8k2-41">
          <mxGeometry relative="1" as="geometry" />
        </mxCell>
        <mxCell id="JW0y1luNZP_NVmCAK8k2-43" value="extend" style="edgeLabel;html=1;align=center;verticalAlign=middle;resizable=0;points=[];" vertex="1" connectable="0" parent="JW0y1luNZP_NVmCAK8k2-42">
          <mxGeometry x="-0.34" y="-1" relative="1" as="geometry">
            <mxPoint as="offset" />
          </mxGeometry>
        </mxCell>
        <mxCell id="JW0y1luNZP_NVmCAK8k2-8" value="Добавлять/Редактировать/Удалять товары" style="ellipse;whiteSpace=wrap;html=1;" vertex="1" parent="JW0y1luNZP_NVmCAK8k2-1">
          <mxGeometry x="140" y="410" width="140" height="50" as="geometry" />
        </mxCell>
        <mxCell id="JW0y1luNZP_NVmCAK8k2-24" style="edgeStyle=orthogonalEdgeStyle;rounded=0;orthogonalLoop=1;jettySize=auto;html=1;exitX=0;exitY=0.5;exitDx=0;exitDy=0;entryX=0;entryY=0.5;entryDx=0;entryDy=0;dashed=1;" edge="1" parent="JW0y1luNZP_NVmCAK8k2-1" source="JW0y1luNZP_NVmCAK8k2-9" target="JW0y1luNZP_NVmCAK8k2-18">
          <mxGeometry relative="1" as="geometry" />
        </mxCell>
        <mxCell id="JW0y1luNZP_NVmCAK8k2-29" value="include" style="edgeLabel;html=1;align=center;verticalAlign=middle;resizable=0;points=[];" vertex="1" connectable="0" parent="JW0y1luNZP_NVmCAK8k2-24">
          <mxGeometry x="-0.0328" y="1" relative="1" as="geometry">
            <mxPoint as="offset" />
          </mxGeometry>
        </mxCell>
        <mxCell id="JW0y1luNZP_NVmCAK8k2-9" value="Просмотр товаров" style="ellipse;whiteSpace=wrap;html=1;" vertex="1" parent="JW0y1luNZP_NVmCAK8k2-1">
          <mxGeometry x="440" y="400" width="120" height="50" as="geometry" />
        </mxCell>
        <mxCell id="JW0y1luNZP_NVmCAK8k2-30" style="edgeStyle=orthogonalEdgeStyle;rounded=0;orthogonalLoop=1;jettySize=auto;html=1;exitX=0;exitY=0.5;exitDx=0;exitDy=0;entryX=0.5;entryY=1;entryDx=0;entryDy=0;dashed=1;" edge="1" parent="JW0y1luNZP_NVmCAK8k2-1" source="JW0y1luNZP_NVmCAK8k2-10" target="JW0y1luNZP_NVmCAK8k2-6">
          <mxGeometry relative="1" as="geometry" />
        </mxCell>
        <mxCell id="JW0y1luNZP_NVmCAK8k2-31" value="include" style="edgeLabel;html=1;align=center;verticalAlign=middle;resizable=0;points=[];" vertex="1" connectable="0" parent="JW0y1luNZP_NVmCAK8k2-30">
          <mxGeometry x="-0.1833" relative="1" as="geometry">
            <mxPoint as="offset" />
          </mxGeometry>
        </mxCell>
        <mxCell id="JW0y1luNZP_NVmCAK8k2-10" value="Формировать заказ" style="ellipse;whiteSpace=wrap;html=1;" vertex="1" parent="JW0y1luNZP_NVmCAK8k2-1">
          <mxGeometry x="234" y="180" width="120" height="50" as="geometry" />
        </mxCell>
        <mxCell id="JW0y1luNZP_NVmCAK8k2-20" style="edgeStyle=orthogonalEdgeStyle;rounded=0;orthogonalLoop=1;jettySize=auto;html=1;exitX=0;exitY=0.5;exitDx=0;exitDy=0;entryX=1;entryY=0.5;entryDx=0;entryDy=0;dashed=1;" edge="1" parent="JW0y1luNZP_NVmCAK8k2-1" source="JW0y1luNZP_NVmCAK8k2-11" target="JW0y1luNZP_NVmCAK8k2-6">
          <mxGeometry relative="1" as="geometry" />
        </mxCell>
        <mxCell id="JW0y1luNZP_NVmCAK8k2-32" value="extend" style="edgeLabel;html=1;align=center;verticalAlign=middle;resizable=0;points=[];" vertex="1" connectable="0" parent="JW0y1luNZP_NVmCAK8k2-20">
          <mxGeometry x="0.0106" y="-2" relative="1" as="geometry">
            <mxPoint as="offset" />
          </mxGeometry>
        </mxCell>
        <mxCell id="JW0y1luNZP_NVmCAK8k2-11" value="Редактировать заказы" style="ellipse;whiteSpace=wrap;html=1;" vertex="1" parent="JW0y1luNZP_NVmCAK8k2-1">
          <mxGeometry x="234" y="95" width="120" height="50" as="geometry" />
        </mxCell>
        <mxCell id="JW0y1luNZP_NVmCAK8k2-26" style="edgeStyle=orthogonalEdgeStyle;rounded=0;orthogonalLoop=1;jettySize=auto;html=1;exitX=0;exitY=0.5;exitDx=0;exitDy=0;entryX=1;entryY=0.5;entryDx=0;entryDy=0;dashed=1;" edge="1" parent="JW0y1luNZP_NVmCAK8k2-1" source="JW0y1luNZP_NVmCAK8k2-14" target="JW0y1luNZP_NVmCAK8k2-15">
          <mxGeometry relative="1" as="geometry" />
        </mxCell>
        <mxCell id="JW0y1luNZP_NVmCAK8k2-33" value="extend" style="edgeLabel;html=1;align=center;verticalAlign=middle;resizable=0;points=[];" vertex="1" connectable="0" parent="JW0y1luNZP_NVmCAK8k2-26">
          <mxGeometry x="-0.3212" y="-2" relative="1" as="geometry">
            <mxPoint as="offset" />
          </mxGeometry>
        </mxCell>
        <mxCell id="JW0y1luNZP_NVmCAK8k2-14" value="Редактировать заказы" style="ellipse;whiteSpace=wrap;html=1;" vertex="1" parent="JW0y1luNZP_NVmCAK8k2-1">
          <mxGeometry x="240" y="350" width="120" height="50" as="geometry" />
        </mxCell>
        <mxCell id="JW0y1luNZP_NVmCAK8k2-15" value="Просмотр заказа" style="ellipse;whiteSpace=wrap;html=1;" vertex="1" parent="JW0y1luNZP_NVmCAK8k2-1">
          <mxGeometry x="60" y="360" width="120" height="45" as="geometry" />
        </mxCell>
        <mxCell id="JW0y1luNZP_NVmCAK8k2-18" value="Формирование заказов" style="ellipse;whiteSpace=wrap;html=1;" vertex="1" parent="JW0y1luNZP_NVmCAK8k2-1">
          <mxGeometry x="440" y="460" width="120" height="45" as="geometry" />
        </mxCell>
        <mxCell id="JW0y1luNZP_NVmCAK8k2-19" value="Формирование заказов" style="ellipse;whiteSpace=wrap;html=1;" vertex="1" parent="JW0y1luNZP_NVmCAK8k2-1">
          <mxGeometry x="440" y="170" width="120" height="45" as="geometry" />
        </mxCell>
        <mxCell id="JW0y1luNZP_NVmCAK8k2-38" value="Добавить товар" style="ellipse;whiteSpace=wrap;html=1;" vertex="1" parent="JW0y1luNZP_NVmCAK8k2-1">
          <mxGeometry x="10" y="470" width="100" height="40" as="geometry" />
        </mxCell>
        <mxCell id="JW0y1luNZP_NVmCAK8k2-41" value="Удаление товара" style="ellipse;whiteSpace=wrap;html=1;" vertex="1" parent="JW0y1luNZP_NVmCAK8k2-1">
          <mxGeometry x="280" y="470" width="100" height="43" as="geometry" />
        </mxCell>
        <mxCell id="JW0y1luNZP_NVmCAK8k2-12" style="edgeStyle=orthogonalEdgeStyle;rounded=0;orthogonalLoop=1;jettySize=auto;html=1;exitX=0.5;exitY=0.5;exitDx=0;exitDy=0;exitPerimeter=0;entryX=0;entryY=0.5;entryDx=0;entryDy=0;" edge="1" parent="1" source="JW0y1luNZP_NVmCAK8k2-2" target="JW0y1luNZP_NVmCAK8k2-6">
          <mxGeometry relative="1" as="geometry" />
        </mxCell>
        <mxCell id="JW0y1luNZP_NVmCAK8k2-2" value="Менеджер" style="shape=umlActor;verticalLabelPosition=bottom;verticalAlign=top;html=1;outlineConnect=0;" vertex="1" parent="1">
          <mxGeometry x="50" y="290" width="30" height="60" as="geometry" />
        </mxCell>
        <mxCell id="JW0y1luNZP_NVmCAK8k2-25" style="edgeStyle=orthogonalEdgeStyle;rounded=0;orthogonalLoop=1;jettySize=auto;html=1;exitX=0.5;exitY=0.5;exitDx=0;exitDy=0;exitPerimeter=0;entryX=0;entryY=0.5;entryDx=0;entryDy=0;" edge="1" parent="1" source="JW0y1luNZP_NVmCAK8k2-3" target="JW0y1luNZP_NVmCAK8k2-15">
          <mxGeometry relative="1" as="geometry" />
        </mxCell>
        <mxCell id="JW0y1luNZP_NVmCAK8k2-3" value="Администратор" style="shape=umlActor;verticalLabelPosition=bottom;verticalAlign=top;html=1;outlineConnect=0;" vertex="1" parent="1">
          <mxGeometry x="50" y="580" width="30" height="60" as="geometry" />
        </mxCell>
        <mxCell id="JW0y1luNZP_NVmCAK8k2-16" style="edgeStyle=orthogonalEdgeStyle;rounded=0;orthogonalLoop=1;jettySize=auto;html=1;exitX=0.5;exitY=0.5;exitDx=0;exitDy=0;exitPerimeter=0;entryX=1;entryY=0.5;entryDx=0;entryDy=0;" edge="1" parent="1" source="JW0y1luNZP_NVmCAK8k2-4" target="JW0y1luNZP_NVmCAK8k2-7">
          <mxGeometry relative="1" as="geometry" />
        </mxCell>
        <mxCell id="JW0y1luNZP_NVmCAK8k2-4" value="Авторизованный клиент&lt;div&gt;&lt;br&gt;&lt;/div&gt;" style="shape=umlActor;verticalLabelPosition=bottom;verticalAlign=top;html=1;outlineConnect=0;" vertex="1" parent="1">
          <mxGeometry x="780" y="290" width="30" height="60" as="geometry" />
        </mxCell>
        <mxCell id="JW0y1luNZP_NVmCAK8k2-17" style="edgeStyle=orthogonalEdgeStyle;rounded=0;orthogonalLoop=1;jettySize=auto;html=1;exitX=0.5;exitY=0.5;exitDx=0;exitDy=0;exitPerimeter=0;entryX=1;entryY=0.5;entryDx=0;entryDy=0;" edge="1" parent="1" source="JW0y1luNZP_NVmCAK8k2-5" target="JW0y1luNZP_NVmCAK8k2-9">
          <mxGeometry relative="1" as="geometry" />
        </mxCell>
        <mxCell id="JW0y1luNZP_NVmCAK8k2-5" value="Неавторизованный клиент" style="shape=umlActor;verticalLabelPosition=bottom;verticalAlign=top;html=1;outlineConnect=0;" vertex="1" parent="1">
          <mxGeometry x="790" y="600" width="30" height="60" as="geometry" />
        </mxCell>
      </root>
    </mxGraphModel>
  </diagram>
</mxfile>
